<?xml version="1.0" encoding="UTF-8" standalone="no"?>
<svg
   xmlns:dc="http://purl.org/dc/elements/1.1/"
   xmlns:cc="http://creativecommons.org/ns#"
   xmlns:rdf="http://www.w3.org/1999/02/22-rdf-syntax-ns#"
   xmlns:svg="http://www.w3.org/2000/svg"
   xmlns="http://www.w3.org/2000/svg"
   xmlns:sodipodi="http://sodipodi.sourceforge.net/DTD/sodipodi-0.dtd"
   xmlns:inkscape="http://www.inkscape.org/namespaces/inkscape"
   id="Layer_1"
   width="700"
   height="700"
   viewBox="0 0 699.99998 699.99999"
   preserveAspectRatio="xMaxYMax slice"
   version="1.1"
   sodipodi:docname="dropbox-logo.svg"
   inkscape:export-filename="G:\Users\suitedoalex\sites\dropbox-logo-0.png"
   inkscape:export-xdpi="561.73712"
   inkscape:export-ydpi="561.73712"
   inkscape:version="0.92.4 (5da689c313, 2019-01-14)">
  <metadata
     id="metadata24">
    <rdf:RDF>
      <cc:Work
         rdf:about="">
        <dc:format>image/svg+xml</dc:format>
        <dc:type
           rdf:resource="http://purl.org/dc/dcmitype/StillImage" />
        <dc:title></dc:title>
      </cc:Work>
    </rdf:RDF>
  </metadata>
  <defs
     id="defs22" />
  <sodipodi:namedview
     pagecolor="#ffffff"
     bordercolor="#666666"
     borderopacity="1"
     objecttolerance="10"
     gridtolerance="10"
     guidetolerance="10"
     inkscape:pageopacity="0"
     inkscape:pageshadow="2"
     inkscape:window-width="1600"
     inkscape:window-height="837"
     id="namedview20"
     showgrid="false"
     inkscape:zoom="0.5464453"
     inkscape:cx="440.67001"
     inkscape:cy="242.03068"
     inkscape:window-x="-8"
     inkscape:window-y="-8"
     inkscape:window-maximized="1"
     inkscape:current-layer="Layer_1" />
  <style
     id="style2">.st0{fill:#0062FF;}</style>
  <g
     id="Wordmarks-w-Icons_1_"
     transform="matrix(1.2667529,0,0,1.2667529,76.254698,287.54908)"
     inkscape:export-filename="G:\Users\suitedoalex\sites\dropbox-logo-4.png"
     inkscape:export-xdpi="70.138191"
     inkscape:export-ydpi="70.138191">
    <g
       id="Dropbox_x2F_80-Wordmark">
      <g
         id="Glyph_x2F_Dropbox_1_">
        <path
           id="Fill-2_1_"
           class="st0"
           d="M 0,23 24.5,38.6 48.9,23 24.5,7.5 Z"
           inkscape:connector-curvature="0"
           style="fill:#0062ff" />
        <path
           id="Fill-3_1_"
           class="st0"
           d="M 48.9,23 73.4,38.6 97.8,23 73.4,7.5 Z"
           inkscape:connector-curvature="0"
           style="fill:#0062ff" />
        <path
           id="Fill-4_1_"
           class="st0"
           d="M 0,54 24.5,69.6 48.9,54 24.5,38.4 Z"
           inkscape:connector-curvature="0"
           style="fill:#0062ff" />
        <path
           id="Fill-5_1_"
           class="st0"
           d="M 73.4,38.4 48.9,54 73.4,69.6 97.8,54 Z"
           inkscape:connector-curvature="0"
           style="fill:#0062ff" />
        <path
           id="Fill-6_1_"
           class="st0"
           d="M 24.6,74.8 49.1,90.3 73.6,74.8 49.1,59.2 Z"
           inkscape:connector-curvature="0"
           style="fill:#0062ff" />
      </g>
      <path
         id="Path_12_"
         d="M 387.5,76.1 403.6,54.3 388.8,34.1 h 12.7 l 8.6,12.6 8.6,-12.6 h 12.7 l -15.1,20.1 15.9,21.9 h -12.5 l -9.8,-13.9 -9.5,13.9 z"
         inkscape:connector-curvature="0" />
      <path
         id="Path-Copy"
         d="m 366.9,77.4 c -13.6,0 -21.4,-7.5 -21.4,-21.5 v -1.2 c 0,-14.3 9.1,-22 21.4,-22 12.6,0 22,6.5 22,22 v 1.2 c 0,14 -9.3,21.5 -22,21.5 z m -0.1,-9.7 c 6.3,0 10.5,-4.2 10.5,-12 v -1 c 0,-8 -4.2,-12.6 -10.4,-12.6 -6.1,0 -9.7,4.6 -9.7,12.8 v 1 c 0,7.8 3.3,11.8 9.6,11.8 z"
         inkscape:connector-curvature="0" />
      <path
         id="Path_11_"
         d="m 322.7,77.4 c -6.9,0 -11.5,-3.4 -13.8,-8.8 L 308,76.1 H 298 V 19.2 h 10.8 v 22.3 c 2.3,-5.5 7.4,-8.5 14.1,-8.5 10,0.1 17.1,7.1 17.1,21.2 v 1.2 c 0.1,15.4 -6.5,22 -17.3,22 z m -3.5,-9.5 c 6.4,0 9.8,-4.1 9.8,-12.5 v -1 c 0,-7.8 -3.8,-12 -9.6,-12 -6.1,0 -10.2,4.9 -10.2,12.2 v 0.9 c -0.1,7.8 3.9,12.4 10,12.4 z"
         inkscape:connector-curvature="0" />
      <path
         id="Path_10_"
         d="M 249.4,90.9 V 34.1 h 9.3 l 1.1,7.7 c 2.3,-5.4 5.6,-9 13.9,-9 10.8,0 17.7,6.4 17.7,22 V 56 c 0,15.3 -7.7,21.2 -17.7,21.2 -6.7,0 -11.2,-3 -13.5,-7.9 V 91.1 H 249.4 Z M 270,67.6 c 6.3,0 10.2,-4.2 10.2,-12 v -1 C 280.2,46.2 276,42 270.2,42 264.1,42 260,46.7 260,54.5 v 0.8 c 0,7.6 3.9,12.3 10,12.3 z"
         inkscape:connector-curvature="0" />
      <path
         id="Path_9_"
         d="m 220.6,77.4 c -13.6,0 -21.4,-7.5 -21.4,-21.5 v -1.2 c 0,-14.3 9.1,-22 21.4,-22 12.6,0 22,6.5 22,22 v 1.2 c 0,14 -9.3,21.5 -22,21.5 z m -0.1,-9.7 c 6.3,0 10.5,-4.2 10.5,-12 v -1 c 0,-8 -4.2,-12.6 -10.4,-12.6 -6.1,0 -9.7,4.6 -9.7,12.8 v 1 c 0,7.8 3.3,11.8 9.6,11.8 z"
         inkscape:connector-curvature="0" />
      <path
         id="Path_8_"
         d="m 169.4,76.1 h 11.4 V 57 c 0,-8.8 4.6,-11.4 12.5,-11.4 h 3.3 V 34.1 h -2.8 c -8,0 -11,3.4 -12.7,10 l -2.2,-10 h -9.4 v 42 z"
         inkscape:connector-curvature="0" />
      <path
         id="Path_7_"
         d="M 118,76.1 V 21.9 h 19.8 c 12.9,0 24.9,8.1 24.9,24.8 v 4.9 C 162.7,68.4 151.2,76 138.1,76 H 118 Z m 19.2,-43.4 h -7.5 v 32.5 h 7.9 c 5.9,0 13.5,-3.5 13.5,-14 V 47.1 C 151,36.7 144,32.7 137.2,32.7 Z"
         inkscape:connector-curvature="0" />
    </g>
  </g>
</svg>
