<?xml version="1.0" encoding="UTF-8" standalone="no"?>
<!-- Created with Inkscape (http://www.inkscape.org/) -->

<svg
   xmlns:dc="http://purl.org/dc/elements/1.1/"
   xmlns:cc="http://creativecommons.org/ns#"
   xmlns:rdf="http://www.w3.org/1999/02/22-rdf-syntax-ns#"
   xmlns:svg="http://www.w3.org/2000/svg"
   xmlns="http://www.w3.org/2000/svg"
   xmlns:sodipodi="http://sodipodi.sourceforge.net/DTD/sodipodi-0.dtd"
   xmlns:inkscape="http://www.inkscape.org/namespaces/inkscape"
   version="1.1"
   id="svg2"
   xml:space="preserve"
   width="4096"
   height="4096"
   viewBox="0 0 4096 4096.0001"
   sodipodi:docname="loreal-logo.svg"
   inkscape:version="0.92.2 (5c3e80d, 2017-08-06)"><metadata
     id="metadata8"><rdf:RDF><cc:Work
         rdf:about=""><dc:format>image/svg+xml</dc:format><dc:type
           rdf:resource="http://purl.org/dc/dcmitype/StillImage" /><dc:title></dc:title></cc:Work></rdf:RDF></metadata><defs
     id="defs6"><clipPath
       clipPathUnits="userSpaceOnUse"
       id="clipPath18"><path
         d="M 0.06,864.567 H 623.622 V 0 H 0.06 Z"
         id="path16"
         inkscape:connector-curvature="0" /></clipPath></defs><sodipodi:namedview
     pagecolor="#ffffff"
     bordercolor="#666666"
     borderopacity="1"
     objecttolerance="10"
     gridtolerance="10"
     guidetolerance="10"
     inkscape:pageopacity="0"
     inkscape:pageshadow="2"
     inkscape:window-width="1920"
     inkscape:window-height="1017"
     id="namedview4"
     showgrid="false"
     inkscape:zoom="0.10236338"
     inkscape:cx="233.07887"
     inkscape:cy="1625.7162"
     inkscape:window-x="-8"
     inkscape:window-y="-8"
     inkscape:window-maximized="1"
     inkscape:current-layer="g10" /><g
     id="g10"
     inkscape:groupmode="layer"
     inkscape:label="loreal-logo"
     transform="matrix(1.3333333,0,0,-1.3333333,0,4096)"><g
       id="g22"
       transform="matrix(13.099407,0,0,13.099407,1644.1029,1343.7859)"
       style="fill:#000000"><path
         d="M 0,0 H 24.186 V 2.953 H 4.146 v 9.454 h 15.053 v 2.989 H 4.146 v 8.71 h 20.04 V 27.05 H 0"
         style="fill:#000000;fill-opacity:1;fill-rule:nonzero;stroke:none"
         id="path24"
         inkscape:connector-curvature="0" /></g><g
       id="g26"
       transform="matrix(13.099407,0,0,13.099407,1808.7363,1755.3954)"
       style="fill:#000000"><path
         d="M 0,0 -3.274,-3.679 7.006,0"
         style="fill:#000000;fill-opacity:1;fill-rule:nonzero;stroke:none"
         id="path28"
         inkscape:connector-curvature="0" /></g><g
       id="g30"
       transform="matrix(13.099407,0,0,13.099407,2492.8135,1382.4685)"
       style="fill:#000000"><path
         d="M 0,0 V 24.096 H -3.78 V -2.953 H 20.671 V 0"
         style="fill:#000000;fill-opacity:1;fill-rule:nonzero;stroke:none"
         id="path32"
         inkscape:connector-curvature="0" /></g><g
       id="g34"
       transform="matrix(13.099407,0,0,13.099407,2166.2322,1698.1249)"
       style="fill:#000000"><path
         d="m 0,0 -13.754,-27.05 h 4.648 l 3.52,7.001 h 16.495 l 3.55,-7.001 H 19.06 L 5.294,0 Z m -3.846,-16.659 6.481,12.921 6.558,-12.921"
         style="fill:#000000;fill-opacity:1;fill-rule:nonzero;stroke:none"
         id="path36"
         inkscape:connector-curvature="0" /></g><g
       id="g38"
       transform="matrix(13.099407,0,0,13.099407,1472.1863,1491.9402)"
       style="fill:#000000"><path
         d="m 0,0 c 6.197,1.654 6.799,6.266 6.768,7.913 -0.37,4.833 -3.625,7.827 -9.476,7.827 h -17.049 v -27.05 h 3.886 V 0.037 H -4.772 L 3.393,-11.31 h 4.9 c 0,0 -5.876,7.637 -8.293,11.31 m -3.24,3.233 h -12.631 v 9.305 h 13.073 c 3.008,0 4.702,-1.405 5.311,-3.19 C 2.916,8.125 2.658,6.519 1.991,5.425 0.898,3.617 -1.177,3.233 -3.24,3.233"
         style="fill:#000000;fill-opacity:1;fill-rule:nonzero;stroke:none"
         id="path40"
         inkscape:connector-curvature="0" /></g><g
       id="g42"
       transform="matrix(13.099407,0,0,13.099407,907.41845,1758.107)"
       style="fill:#000000"><path
         d="m 0,0 c -10.97,0 -18.448,-7.735 -18.448,-17.097 0,-9.856 8.261,-16.814 18.448,-16.814 10.182,0 18.439,6.858 18.439,16.814 C 18.439,-7.735 10.869,0 0,0 m -0.131,-30.553 c -7.59,0 -13.844,6.099 -13.844,13.447 0,7.338 5.958,13.73 14.138,13.73 7.977,0 13.841,-6.392 13.841,-13.73 0,-7.348 -6.547,-13.447 -14.135,-13.447"
         style="fill:#000000;fill-opacity:1;fill-rule:nonzero;stroke:none"
         id="path44"
         inkscape:connector-curvature="0" /></g><g
       id="g46"
       transform="matrix(13.099407,0,0,13.099407,537.54359,1572.7767)"
       style="fill:#000000"><path
         d="M 0,0 H 2.803 L 7.894,9.569 H 3.798"
         style="fill:#000000;fill-opacity:1;fill-rule:nonzero;stroke:none"
         id="path48"
         inkscape:connector-curvature="0" /></g><g
       id="g50"
       transform="matrix(13.099407,0,0,13.099407,357.95073,1382.4685)"
       style="fill:#000000"><path
         d="M 0,0 V 24.096 H -3.782 V -2.953 H 20.667 V 0"
         style="fill:#000000;fill-opacity:1;fill-rule:nonzero;stroke:none"
         id="path52"
         inkscape:connector-curvature="0" /></g></g></svg>